<svg xmlns="http://www.w3.org/2000/svg" viewBox="0 0 800 600" preserveAspectRatio="xMidYMid slice">
<defs><linearGradient id="s" x1="0" y1="0" x2="0" y2="1"><stop offset="0" stop-color="#4c1d95"/><stop offset="0.6" stop-color="#7c3aed"/><stop offset="1" stop-color="#c026d3"/></linearGradient></defs>
<rect width="800" height="600" fill="url(#s)"/>
<circle cx="541.7" cy="329.7" r="1.7" fill="#ffe694" opacity="0.71"/>
<circle cx="423.4" cy="245.6" r="1.9" fill="#ffe694" opacity="0.46"/>
<circle cx="214.3" cy="45.2" r="1.4" fill="#f9a8d4" opacity="0.59"/>
<path d="M703.3 384.2 L704.0 385.9 L705.7 386.6 L704.0 387.2 L703.3 389.0 L702.6 387.2 L700.9 386.6 L702.6 385.9 Z" fill="#f9a8d4" opacity="0.67"/>
<circle cx="78.8" cy="7.1" r="1.8" fill="#ffe694" opacity="0.65"/>
<circle cx="791.4" cy="239.7" r="1.7" fill="#f9a8d4" opacity="0.50"/>
<path d="M186.3 223.9 L187.7 227.6 L191.4 229.0 L187.7 230.4 L186.3 234.1 L184.9 230.4 L181.2 229.0 L184.9 227.6 Z" fill="#ffe694" opacity="0.88"/>
<circle cx="107.7" cy="207.2" r="1.8" fill="#ffe694" opacity="0.67"/>
<circle cx="475.3" cy="218.5" r="2.3" fill="#ffe694" opacity="0.70"/>
<circle cx="692.9" cy="374.0" r="1.2" fill="#ffe694" opacity="0.42"/>
<circle cx="540.6" cy="274.0" r="2.5" fill="#ffe694" opacity="0.69"/>
<path d="M588.3 190.4 L589.2 192.7 L591.5 193.6 L589.2 194.5 L588.3 196.9 L587.4 194.5 L585.1 193.6 L587.4 192.7 Z" fill="#ffffff" opacity="0.81"/>
<circle cx="249.0" cy="405.3" r="1.6" fill="#ffe694" opacity="0.68"/>
<path d="M525.2 3.0 L526.2 5.7 L529.0 6.8 L526.2 7.8 L525.2 10.6 L524.1 7.8 L521.4 6.8 L524.1 5.7 Z" fill="#ffffff" opacity="0.56"/>
<circle cx="344.1" cy="370.9" r="2.3" fill="#ffe694" opacity="0.52"/>
<circle cx="547.2" cy="28.5" r="2.0" fill="#ffffff" opacity="0.78"/>
<circle cx="496.6" cy="121.7" r="1.9" fill="#f9a8d4" opacity="0.42"/>
<circle cx="766.8" cy="88.5" r="1.7" fill="#ffe694" opacity="0.44"/>
<circle cx="168.5" cy="82.8" r="1.7" fill="#ffffff" opacity="0.85"/>
<circle cx="643.3" cy="337.5" r="1.8" fill="#f9a8d4" opacity="0.83"/>
<circle cx="512.8" cy="286.1" r="1.3" fill="#ffe694" opacity="0.70"/>
<circle cx="748.5" cy="366.1" r="1.2" fill="#ffffff" opacity="0.42"/>
<circle cx="694.8" cy="109.4" r="1.6" fill="#ffe694" opacity="0.63"/>
<circle cx="149.7" cy="361.2" r="1.4" fill="#f9a8d4" opacity="0.83"/>
<circle cx="423.1" cy="173.5" r="0.9" fill="#ffe694" opacity="0.62"/>
<circle cx="366.3" cy="307.0" r="0.9" fill="#ffffff" opacity="0.56"/>
<path d="M313.5 406.0 L314.2 407.9 L316.1 408.6 L314.2 409.3 L313.5 411.2 L312.7 409.3 L310.8 408.6 L312.7 407.9 Z" fill="#f9a8d4" opacity="0.80"/>
<circle cx="477.2" cy="38.2" r="0.9" fill="#f9a8d4" opacity="0.66"/>
<path d="M490.5 98.0 L492.0 101.6 L495.6 103.0 L492.0 104.4 L490.5 108.1 L489.1 104.4 L485.5 103.0 L489.1 101.6 Z" fill="#ffe694" opacity="0.90"/>
<circle cx="199.8" cy="51.1" r="2.3" fill="#f9a8d4" opacity="0.48"/>
<circle cx="437.8" cy="243.1" r="1.4" fill="#f9a8d4" opacity="0.87"/>
<path d="M110.0 189.0 L111.3 192.1 L114.4 193.3 L111.3 194.5 L110.0 197.6 L108.8 194.5 L105.7 193.3 L108.8 192.1 Z" fill="#ffe694" opacity="0.73"/>
<path d="M679.4 177.9 L681.2 182.3 L685.6 184.0 L681.2 185.7 L679.4 190.1 L677.7 185.7 L673.3 184.0 L677.7 182.3 Z" fill="#ffe694" opacity="0.77"/>
<circle cx="416.6" cy="205.3" r="2.5" fill="#f9a8d4" opacity="0.67"/>
<circle cx="461.0" cy="277.7" r="1.8" fill="#ffe694" opacity="0.46"/>
<circle cx="109.0" cy="224.3" r="1.1" fill="#f9a8d4" opacity="0.51"/>
<circle cx="223.3" cy="168.7" r="1.9" fill="#ffffff" opacity="0.75"/>
<circle cx="673.1" cy="394.5" r="1.3" fill="#f9a8d4" opacity="0.69"/>
<circle cx="210.2" cy="195.2" r="2.2" fill="#ffffff" opacity="0.48"/>
<circle cx="15.1" cy="256.1" r="2.6" fill="#ffe694" opacity="0.96"/>
<rect x="85" y="295" width="10" height="16" rx="2" fill="#4cc9f0" opacity="0.63" transform="rotate(98 85 295)"/><rect x="58" y="189" width="8" height="15" rx="2" fill="#ffb84d" opacity="0.62" transform="rotate(142 58 189)"/><rect x="697" y="133" width="11" height="11" rx="2" fill="#ffe066" opacity="0.57" transform="rotate(228 697 133)"/><rect x="532" y="116" width="5" height="9" rx="2" fill="#ff6b6b" opacity="0.54" transform="rotate(214 532 116)"/><rect x="164" y="411" width="8" height="16" rx="2" fill="#ffb84d" opacity="0.89" transform="rotate(158 164 411)"/><rect x="550" y="47" width="9" height="13" rx="2" fill="#ffb84d" opacity="0.84" transform="rotate(65 550 47)"/><rect x="389" y="282" width="7" height="13" rx="2" fill="#4cc9f0" opacity="0.73" transform="rotate(175 389 282)"/><rect x="82" y="344" width="6" height="10" rx="2" fill="#ec4899" opacity="0.55" transform="rotate(10 82 344)"/><rect x="421" y="39" width="8" height="13" rx="2" fill="#ffffff" opacity="0.64" transform="rotate(193 421 39)"/><rect x="368" y="175" width="11" height="10" rx="2" fill="#ffffff" opacity="0.89" transform="rotate(142 368 175)"/><rect x="751" y="28" width="6" height="14" rx="2" fill="#ff6b6b" opacity="0.87" transform="rotate(206 751 28)"/><rect x="325" y="415" width="5" height="14" rx="2" fill="#ffffff" opacity="0.62" transform="rotate(132 325 415)"/><rect x="242" y="79" width="9" height="12" rx="2" fill="#ec4899" opacity="0.54" transform="rotate(92 242 79)"/><rect x="154" y="11" width="5" height="12" rx="2" fill="#8b5cf6" opacity="0.95" transform="rotate(188 154 11)"/><rect x="91" y="402" width="10" height="8" rx="2" fill="#4cc9f0" opacity="0.58" transform="rotate(90 91 402)"/><rect x="166" y="286" width="7" height="14" rx="2" fill="#ff6b6b" opacity="0.75" transform="rotate(322 166 286)"/><rect x="477" y="396" width="10" height="12" rx="2" fill="#8b5cf6" opacity="0.72" transform="rotate(303 477 396)"/><rect x="196" y="163" width="9" height="15" rx="2" fill="#ff6b6b" opacity="0.61" transform="rotate(176 196 163)"/><rect x="747" y="197" width="7" height="10" rx="2" fill="#5eead4" opacity="0.52" transform="rotate(37 747 197)"/><rect x="743" y="89" width="8" height="9" rx="2" fill="#ff6b6b" opacity="0.85" transform="rotate(323 743 89)"/><rect x="205" y="155" width="8" height="9" rx="2" fill="#ffe066" opacity="0.86" transform="rotate(80 205 155)"/><rect x="138" y="7" width="11" height="16" rx="2" fill="#8b5cf6" opacity="0.95" transform="rotate(310 138 7)"/><rect x="476" y="346" width="10" height="13" rx="2" fill="#ffffff" opacity="0.65" transform="rotate(169 476 346)"/><rect x="61" y="154" width="12" height="13" rx="2" fill="#ffb84d" opacity="0.91" transform="rotate(233 61 154)"/><rect x="55" y="353" width="6" height="8" rx="2" fill="#ffe066" opacity="0.53" transform="rotate(232 55 353)"/><rect x="635" y="128" width="6" height="11" rx="2" fill="#ff6b6b" opacity="0.90" transform="rotate(212 635 128)"/><rect x="375" y="363" width="10" height="8" rx="2" fill="#4cc9f0" opacity="0.61" transform="rotate(29 375 363)"/><rect x="545" y="271" width="5" height="16" rx="2" fill="#ff6b6b" opacity="0.92" transform="rotate(85 545 271)"/><rect x="721" y="359" width="8" height="12" rx="2" fill="#8b5cf6" opacity="0.51" transform="rotate(124 721 359)"/><rect x="109" y="402" width="11" height="14" rx="2" fill="#ffffff" opacity="0.51" transform="rotate(348 109 402)"/><rect x="517" y="420" width="7" height="11" rx="2" fill="#4cc9f0" opacity="0.81" transform="rotate(217 517 420)"/><rect x="774" y="176" width="6" height="8" rx="2" fill="#ffffff" opacity="0.61" transform="rotate(310 774 176)"/><rect x="651" y="409" width="10" height="15" rx="2" fill="#ffb84d" opacity="0.61" transform="rotate(70 651 409)"/><rect x="72" y="364" width="9" height="8" rx="2" fill="#4cc9f0" opacity="0.85" transform="rotate(243 72 364)"/><rect x="339" y="94" width="10" height="13" rx="2" fill="#ffe066" opacity="0.82" transform="rotate(253 339 94)"/><rect x="369" y="85" width="6" height="11" rx="2" fill="#8b5cf6" opacity="0.65" transform="rotate(79 369 85)"/><rect x="427" y="412" width="5" height="13" rx="2" fill="#4cc9f0" opacity="0.71" transform="rotate(166 427 412)"/><rect x="244" y="20" width="5" height="8" rx="2" fill="#8b5cf6" opacity="0.79" transform="rotate(110 244 20)"/><rect x="295" y="403" width="6" height="14" rx="2" fill="#ffb84d" opacity="0.95" transform="rotate(9 295 403)"/><rect x="701" y="96" width="11" height="15" rx="2" fill="#8b5cf6" opacity="0.58" transform="rotate(213 701 96)"/><rect x="197" y="363" width="9" height="11" rx="2" fill="#ec4899" opacity="0.55" transform="rotate(188 197 363)"/><rect x="32" y="366" width="7" height="10" rx="2" fill="#5eead4" opacity="0.55" transform="rotate(291 32 366)"/><rect x="680" y="95" width="8" height="13" rx="2" fill="#ffb84d" opacity="0.70" transform="rotate(40 680 95)"/><rect x="616" y="321" width="6" height="15" rx="2" fill="#5eead4" opacity="0.53" transform="rotate(296 616 321)"/><rect x="435" y="228" width="12" height="13" rx="2" fill="#ffb84d" opacity="0.56" transform="rotate(70 435 228)"/><rect x="691" y="263" width="11" height="9" rx="2" fill="#ffb84d" opacity="0.89" transform="rotate(268 691 263)"/><rect x="465" y="95" width="12" height="9" rx="2" fill="#8b5cf6" opacity="0.67" transform="rotate(200 465 95)"/><rect x="52" y="280" width="12" height="11" rx="2" fill="#8b5cf6" opacity="0.88" transform="rotate(324 52 280)"/><rect x="132" y="203" width="10" height="9" rx="2" fill="#ffffff" opacity="0.64" transform="rotate(128 132 203)"/><rect x="601" y="225" width="6" height="12" rx="2" fill="#ffe066" opacity="0.91" transform="rotate(127 601 225)"/><rect x="341" y="75" width="12" height="11" rx="2" fill="#5eead4" opacity="0.75" transform="rotate(123 341 75)"/><rect x="762" y="294" width="12" height="9" rx="2" fill="#ec4899" opacity="0.64" transform="rotate(340 762 294)"/><rect x="195" y="125" width="6" height="16" rx="2" fill="#5eead4" opacity="0.73" transform="rotate(43 195 125)"/><rect x="48" y="60" width="8" height="9" rx="2" fill="#5eead4" opacity="0.83" transform="rotate(82 48 60)"/><rect x="527" y="130" width="11" height="12" rx="2" fill="#ffe066" opacity="0.60" transform="rotate(79 527 130)"/><rect x="648" y="343" width="5" height="15" rx="2" fill="#4cc9f0" opacity="0.93" transform="rotate(151 648 343)"/><rect x="361" y="101" width="5" height="15" rx="2" fill="#4cc9f0" opacity="0.94" transform="rotate(164 361 101)"/><rect x="749" y="393" width="9" height="15" rx="2" fill="#ffb84d" opacity="0.72" transform="rotate(110 749 393)"/><rect x="325" y="201" width="9" height="16" rx="2" fill="#8b5cf6" opacity="0.88" transform="rotate(115 325 201)"/><rect x="56" y="275" width="12" height="9" rx="2" fill="#5eead4" opacity="0.70" transform="rotate(58 56 275)"/><rect x="355" y="394" width="8" height="11" rx="2" fill="#5eead4" opacity="0.88" transform="rotate(144 355 394)"/><rect x="62" y="39" width="9" height="10" rx="2" fill="#ffffff" opacity="0.93" transform="rotate(237 62 39)"/><rect x="643" y="373" width="8" height="14" rx="2" fill="#ec4899" opacity="0.89" transform="rotate(119 643 373)"/><rect x="379" y="314" width="8" height="11" rx="2" fill="#4cc9f0" opacity="0.55" transform="rotate(6 379 314)"/><rect x="652" y="390" width="10" height="12" rx="2" fill="#ffffff" opacity="0.92" transform="rotate(20 652 390)"/><rect x="44" y="173" width="11" height="15" rx="2" fill="#ffe066" opacity="0.67" transform="rotate(214 44 173)"/><rect x="168" y="54" width="11" height="11" rx="2" fill="#5eead4" opacity="0.92" transform="rotate(23 168 54)"/><rect x="15" y="305" width="9" height="14" rx="2" fill="#ec4899" opacity="0.57" transform="rotate(273 15 305)"/><rect x="41" y="140" width="9" height="11" rx="2" fill="#ff6b6b" opacity="0.78" transform="rotate(149 41 140)"/><rect x="384" y="379" width="5" height="16" rx="2" fill="#5eead4" opacity="0.78" transform="rotate(257 384 379)"/><g transform="translate(300,360)"><path d="M0 120 L20 40 L220 40 L240 120 Z" fill="#ec4899"/><rect x="20" y="20" width="200" height="26" rx="8" fill="#ffe694"/><circle cx="60" cy="140" r="22" fill="#3b0764" stroke="#ffe694" stroke-width="4"/><circle cx="180" cy="140" r="22" fill="#3b0764" stroke="#ffe694" stroke-width="4"/><path d="M120 40 L120 -10" stroke="#ffe694" stroke-width="3"/><path d="M120 -14 l3 8 8 .6 -6 5 2 8 -7-4.6 -7 4.6 2-8 -6-5 8-.6z" fill="#f5c542"/></g>
</svg>
