<svg xmlns="http://www.w3.org/2000/svg" viewBox="0 0 800 600" preserveAspectRatio="xMidYMid slice">
<defs><linearGradient id="s" x1="0" y1="0" x2="0" y2="1"><stop offset="0" stop-color="#2a0a52"/><stop offset="0.55" stop-color="#6d28d9"/><stop offset="1" stop-color="#9d4edd"/></linearGradient></defs>
<rect width="800" height="600" fill="url(#s)"/>
<circle cx="9.8" cy="47.2" r="1.5" fill="#ffffff" opacity="0.81"/>
<circle cx="428.2" cy="298.8" r="1.1" fill="#ffffff" opacity="0.99"/>
<path d="M109.3 221.1 L110.3 223.9 L113.1 225.0 L110.3 226.1 L109.3 228.8 L108.2 226.1 L105.4 225.0 L108.2 223.9 Z" fill="#f9a8d4" opacity="0.65"/>
<circle cx="16.3" cy="394.7" r="1.5" fill="#ffe694" opacity="0.52"/>
<circle cx="477.5" cy="103.6" r="2.1" fill="#f9a8d4" opacity="0.65"/>
<path d="M763.0 348.8 L764.0 351.3 L766.5 352.2 L764.0 353.2 L763.0 355.7 L762.0 353.2 L759.5 352.2 L762.0 351.3 Z" fill="#ffe694" opacity="0.52"/>
<circle cx="588.0" cy="364.7" r="2.0" fill="#ffe694" opacity="0.53"/>
<circle cx="155.0" cy="269.2" r="1.2" fill="#ffe694" opacity="0.42"/>
<circle cx="457.5" cy="202.4" r="2.0" fill="#ffffff" opacity="0.59"/>
<circle cx="794.8" cy="331.7" r="1.4" fill="#f9a8d4" opacity="0.51"/>
<circle cx="670.6" cy="123.9" r="1.1" fill="#f9a8d4" opacity="0.42"/>
<path d="M765.6 278.1 L766.5 280.3 L768.8 281.2 L766.5 282.1 L765.6 284.4 L764.7 282.1 L762.5 281.2 L764.7 280.3 Z" fill="#ffffff" opacity="0.58"/>
<path d="M162.1 136.6 L163.1 139.2 L165.7 140.3 L163.1 141.3 L162.1 143.9 L161.1 141.3 L158.4 140.3 L161.1 139.2 Z" fill="#f9a8d4" opacity="0.43"/>
<path d="M79.1 410.4 L79.8 412.2 L81.5 412.9 L79.8 413.5 L79.1 415.3 L78.4 413.5 L76.7 412.9 L78.4 412.2 Z" fill="#ffe694" opacity="0.52"/>
<circle cx="792.1" cy="63.8" r="0.9" fill="#f9a8d4" opacity="0.77"/>
<circle cx="297.9" cy="257.3" r="1.9" fill="#ffffff" opacity="0.42"/>
<circle cx="637.8" cy="254.6" r="1.7" fill="#ffffff" opacity="0.90"/>
<circle cx="612.4" cy="413.7" r="1.4" fill="#ffe694" opacity="0.41"/>
<path d="M356.7 414.6 L357.4 416.4 L359.2 417.1 L357.4 417.8 L356.7 419.6 L356.0 417.8 L354.2 417.1 L356.0 416.4 Z" fill="#f9a8d4" opacity="0.74"/>
<circle cx="491.2" cy="86.7" r="1.1" fill="#ffe694" opacity="0.89"/>
<circle cx="443.6" cy="234.6" r="1.7" fill="#f9a8d4" opacity="0.83"/>
<circle cx="419.2" cy="301.2" r="1.6" fill="#ffe694" opacity="0.83"/>
<circle cx="297.3" cy="219.5" r="1.4" fill="#ffe694" opacity="0.51"/>
<path d="M463.8 64.2 L465.4 68.2 L469.4 69.8 L465.4 71.4 L463.8 75.4 L462.2 71.4 L458.2 69.8 L462.2 68.2 Z" fill="#ffe694" opacity="0.47"/>
<circle cx="196.4" cy="370.6" r="1.2" fill="#ffe694" opacity="0.93"/>
<circle cx="194.2" cy="327.1" r="2.1" fill="#ffffff" opacity="0.90"/>
<circle cx="662.3" cy="115.1" r="1.8" fill="#f9a8d4" opacity="0.66"/>
<circle cx="321.0" cy="343.4" r="1.5" fill="#ffffff" opacity="0.52"/>
<circle cx="237.6" cy="402.9" r="1.0" fill="#ffffff" opacity="0.53"/>
<path d="M554.9 369.2 L556.0 372.0 L558.8 373.1 L556.0 374.1 L554.9 376.9 L553.8 374.1 L551.0 373.1 L553.8 372.0 Z" fill="#f9a8d4" opacity="0.79"/>
<circle cx="27.0" cy="202.6" r="1.3" fill="#ffffff" opacity="0.68"/>
<circle cx="221.8" cy="114.4" r="1.3" fill="#ffffff" opacity="0.93"/>
<circle cx="322.8" cy="326.4" r="1.2" fill="#f9a8d4" opacity="0.76"/>
<circle cx="255.8" cy="40.3" r="1.8" fill="#ffe694" opacity="0.51"/>
<circle cx="394.0" cy="128.5" r="1.6" fill="#ffe694" opacity="0.96"/>
<path d="M310.1 280.1 L311.3 283.2 L314.4 284.4 L311.3 285.6 L310.1 288.7 L308.9 285.6 L305.8 284.4 L308.9 283.2 Z" fill="#ffe694" opacity="0.53"/>
<circle cx="456.5" cy="402.8" r="1.2" fill="#ffe694" opacity="0.91"/>
<circle cx="259.0" cy="412.9" r="2.2" fill="#ffffff" opacity="0.44"/>
<circle cx="608.2" cy="179.6" r="2.2" fill="#ffffff" opacity="0.59"/>
<circle cx="180.3" cy="361.8" r="1.8" fill="#ffe694" opacity="0.45"/>
<circle cx="352.0" cy="201.6" r="1.7" fill="#f9a8d4" opacity="0.81"/>
<path d="M581.7 139.7 L582.5 141.6 L584.4 142.3 L582.5 143.1 L581.7 145.0 L581.0 143.1 L579.1 142.3 L581.0 141.6 Z" fill="#ffe694" opacity="0.45"/>
<path d="M455.4 378.8 L456.3 381.2 L458.7 382.1 L456.3 383.0 L455.4 385.4 L454.5 383.0 L452.1 382.1 L454.5 381.2 Z" fill="#ffe694" opacity="0.63"/>
<circle cx="46.4" cy="365.2" r="1.6" fill="#ffe694" opacity="0.93"/>
<circle cx="321.2" cy="343.0" r="2.1" fill="#f9a8d4" opacity="0.95"/>
<path d="M254.9 97.5 L255.7 99.7 L257.9 100.6 L255.7 101.4 L254.9 103.6 L254.0 101.4 L251.9 100.6 L254.0 99.7 Z" fill="#ffffff" opacity="0.45"/>
<circle cx="468.4" cy="365.9" r="2.4" fill="#ffe694" opacity="0.48"/>
<circle cx="219.9" cy="143.1" r="2.5" fill="#ffe694" opacity="0.86"/>
<circle cx="656.6" cy="176.5" r="0.9" fill="#ffe694" opacity="0.79"/>
<circle cx="772.2" cy="48.9" r="2.3" fill="#ffe694" opacity="0.82"/>
<circle cx="623.7" cy="181.5" r="0.9" fill="#f9a8d4" opacity="0.46"/>
<circle cx="381.4" cy="60.2" r="1.6" fill="#ffe694" opacity="0.49"/>
<circle cx="250.9" cy="355.6" r="1.8" fill="#ffffff" opacity="0.86"/>
<circle cx="675.2" cy="343.3" r="2.1" fill="#f9a8d4" opacity="0.54"/>
<circle cx="613.6" cy="110.8" r="1.8" fill="#f9a8d4" opacity="0.87"/>
<path d="M100 430 A 300 300 0 0 1 700 430" fill="none" stroke="#ff6b6b" stroke-width="10" stroke-linecap="round" opacity="0.85"/>
<path d="M112 430 A 288 288 0 0 1 688 430" fill="none" stroke="#ffb84d" stroke-width="10" stroke-linecap="round" opacity="0.85"/>
<path d="M124 430 A 276 276 0 0 1 676 430" fill="none" stroke="#ffe066" stroke-width="10" stroke-linecap="round" opacity="0.85"/>
<path d="M136 430 A 264 264 0 0 1 664 430" fill="none" stroke="#5eead4" stroke-width="10" stroke-linecap="round" opacity="0.85"/>
<path d="M148 430 A 252 252 0 0 1 652 430" fill="none" stroke="#4cc9f0" stroke-width="10" stroke-linecap="round" opacity="0.85"/>
<path d="M160 430 A 240 240 0 0 1 640 430" fill="none" stroke="#8b5cf6" stroke-width="10" stroke-linecap="round" opacity="0.85"/>
<path d="M172 430 A 228 228 0 0 1 628 430" fill="none" stroke="#ec4899" stroke-width="10" stroke-linecap="round" opacity="0.85"/><g transform="translate(95,358)" fill="#1c0838"><circle cx="0" cy="18" r="16"/><path d="M-16 40 Q0 30 16 40 L14 162 L-14 162 Z"/><path d="M-16 44 L-34 90" stroke="#1c0838" stroke-width="9" stroke-linecap="round"/><path d="M16 44 L34 90" stroke="#1c0838" stroke-width="9" stroke-linecap="round"/></g><g transform="translate(162,350)" fill="#1c0838"><circle cx="0" cy="18" r="16"/><path d="M-16 40 Q0 30 16 40 L14 170 L-14 170 Z"/><path d="M-16 44 L-34 90" stroke="#1c0838" stroke-width="9" stroke-linecap="round"/><path d="M16 44 L34 90" stroke="#1c0838" stroke-width="9" stroke-linecap="round"/></g><g transform="translate(243,366)" fill="#1c0838"><circle cx="0" cy="18" r="16"/><path d="M-16 40 Q0 30 16 40 L14 154 L-14 154 Z"/><path d="M-16 44 L-34 90" stroke="#1c0838" stroke-width="9" stroke-linecap="round"/><path d="M16 44 L34 90" stroke="#1c0838" stroke-width="9" stroke-linecap="round"/></g><g transform="translate(320,362)" fill="#1c0838"><circle cx="0" cy="18" r="16"/><path d="M-16 40 Q0 30 16 40 L14 158 L-14 158 Z"/><path d="M-16 44 L-34 90" stroke="#1c0838" stroke-width="9" stroke-linecap="round"/><path d="M16 44 L34 90" stroke="#1c0838" stroke-width="9" stroke-linecap="round"/></g><g transform="translate(402,365)" fill="#1c0838"><circle cx="0" cy="18" r="16"/><path d="M-16 40 Q0 30 16 40 L14 155 L-14 155 Z"/><path d="M-16 44 L-34 90" stroke="#1c0838" stroke-width="9" stroke-linecap="round"/><path d="M16 44 L34 90" stroke="#1c0838" stroke-width="9" stroke-linecap="round"/></g><g transform="translate(495,362)" fill="#1c0838"><circle cx="0" cy="18" r="16"/><path d="M-16 40 Q0 30 16 40 L14 158 L-14 158 Z"/><path d="M-16 44 L-34 90" stroke="#1c0838" stroke-width="9" stroke-linecap="round"/><path d="M16 44 L34 90" stroke="#1c0838" stroke-width="9" stroke-linecap="round"/></g><g transform="translate(569,357)" fill="#1c0838"><circle cx="0" cy="18" r="16"/><path d="M-16 40 Q0 30 16 40 L14 163 L-14 163 Z"/><path d="M-16 44 L-34 90" stroke="#1c0838" stroke-width="9" stroke-linecap="round"/><path d="M16 44 L34 90" stroke="#1c0838" stroke-width="9" stroke-linecap="round"/></g><g transform="translate(662,394)" fill="#1c0838"><circle cx="0" cy="18" r="16"/><path d="M-16 40 Q0 30 16 40 L14 126 L-14 126 Z"/><path d="M-16 44 L-34 90" stroke="#1c0838" stroke-width="9" stroke-linecap="round"/><path d="M16 44 L34 90" stroke="#1c0838" stroke-width="9" stroke-linecap="round"/></g><g transform="translate(730,352)" fill="#1c0838"><circle cx="0" cy="18" r="16"/><path d="M-16 40 Q0 30 16 40 L14 168 L-14 168 Z"/><path d="M-16 44 L-34 90" stroke="#1c0838" stroke-width="9" stroke-linecap="round"/><path d="M16 44 L34 90" stroke="#1c0838" stroke-width="9" stroke-linecap="round"/></g><path d="M0 600 L0 540 Q 191 539 235 549 Q 281 537 365 547 Q 489 526 565 536 Q 709 532 758 542 Q 846 528 930 538 L800 600 Z" fill="#1c0838" opacity="1.0"/>
</svg>
