<svg xmlns="http://www.w3.org/2000/svg" viewBox="0 0 440 64" fill="none">
  <defs>
    <linearGradient id="g" x1="0" y1="0" x2="1" y2="0">
      <stop offset="0" stop-color="#c9971a"/>
      <stop offset="0.5" stop-color="#f5c542"/>
      <stop offset="1" stop-color="#c9971a"/>
    </linearGradient>
  </defs>
  <!-- sweeping lines -->
  <path d="M20 32 C 110 12 150 12 200 30" stroke="url(#g)" stroke-width="2" stroke-linecap="round"/>
  <path d="M420 32 C 330 12 290 12 240 30" stroke="url(#g)" stroke-width="2" stroke-linecap="round"/>
  <path d="M40 40 C 120 54 160 54 205 38" stroke="url(#g)" stroke-width="1.4" stroke-linecap="round" opacity="0.7"/>
  <path d="M400 40 C 320 54 280 54 235 38" stroke="url(#g)" stroke-width="1.4" stroke-linecap="round" opacity="0.7"/>
  <!-- center star -->
  <path d="M220 12 l4.6 11.4 12.4 1 -9.4 8.2 3 12.2 -10.6-6.6 -10.6 6.6 3-12.2 -9.4-8.2 12.4-1z" fill="url(#g)"/>
  <!-- flanking small stars -->
  <g fill="#f5c542">
    <path d="M120 30 l2.4 6 6.5 .5 -4.9 4.3 1.5 6.4 -5.6-3.5 -5.6 3.5 1.5-6.4 -4.9-4.3 6.5-.5z"/>
    <path d="M320 30 l2.4 6 6.5 .5 -4.9 4.3 1.5 6.4 -5.6-3.5 -5.6 3.5 1.5-6.4 -4.9-4.3 6.5-.5z"/>
  </g>
  <g fill="#ec4899" opacity="0.85">
    <circle cx="60" cy="34" r="2.6"/>
    <circle cx="380" cy="34" r="2.6"/>
  </g>
</svg>
